<svg width="245" height="35" viewBox="0 0 245 35" fill="none" xmlns="http://www.w3.org/2000/svg">
<path d="M2.17969 21.4277V10.1777H0V9.75586L5.34375 5.58984H5.64258V9.21094L10.2656 9V10.1777L5.64258 9.98438V21.4102C5.64258 23.9062 6.80273 24.7852 8.36719 24.7852C9.21094 24.7852 10.0195 24.4863 10.5293 23.9941V24.5918C9.94922 25.4883 8.45508 26.332 6.57422 26.332C4.07812 26.332 2.17969 24.9082 2.17969 21.4277ZM17.1562 0V11.7598C18.1406 9.94922 20.1797 8.70117 22.7461 8.70117C26.1387 8.70117 28.5293 10.4238 28.5293 14.0098V23.625C28.5293 24.8379 28.7754 25.1367 30.6562 25.418V26.0156H23.0625V25.418C24.8379 25.1719 25.0664 24.873 25.0664 23.7305V14.7305C25.0664 11.7773 23.6074 10.3359 21.1113 10.3359C19.2656 10.3359 17.8945 11.1621 17.1562 12.4102V23.7305C17.1562 24.873 17.3672 25.1543 19.1602 25.418V26.0156H11.5664V25.418C13.3945 25.1367 13.6934 24.8379 13.6934 23.625V2.91797C13.6934 1.98633 13.5703 1.79297 12.6035 1.47656L11.5664 1.16016V0.632812L17.1562 0ZM32.8359 17.5078C32.8359 12.4277 35.9297 8.70117 40.8164 8.70117C45.2109 8.70117 47.7773 11.584 47.7773 15.6973C47.7773 16.0312 47.7422 16.4004 47.707 16.6289H36.3516C36.4746 21.375 39.0938 24.6973 43.0137 24.6973C45 24.6973 46.4941 23.9766 47.4609 22.957V23.5547C46.3711 25.1895 44.0859 26.332 41.2031 26.332C36.3691 26.332 32.8359 22.7988 32.8359 17.5078ZM40.7988 9.54492C38.0918 9.54492 36.4395 11.8477 36.3516 15.9258L44.4199 15.8555C44.4375 15.627 44.4551 15.3633 44.4551 15.082C44.4551 11.918 43.2598 9.54492 40.7988 9.54492ZM60.2754 20.1797C60.2754 14.3789 63.6855 8.70117 69.0117 8.70117C71.2793 8.70117 72.4043 9.70312 72.791 10.6348L74.6543 9H76.2012L71.3672 31.7461C71.1387 32.8711 71.3848 33.1699 73.2832 33.4863L73.1602 34.1016H65.0742L65.1973 33.4863C67.4824 33.1699 67.7637 32.8711 68.0098 31.7461L70.3125 21.375C69.2402 24.5918 67.2012 26.332 64.7227 26.332C62.1035 26.332 60.2754 23.8887 60.2754 20.1797ZM63.7559 20.4785C63.7559 23.5723 64.6699 24.8027 66.2695 24.8027C67.9922 24.8027 69.7852 22.9043 70.5938 19.6348L72.3691 11.2676C72.1055 10.4062 71.1387 9.68555 69.7148 9.68555C65.7598 9.68555 63.7734 15.6973 63.7559 20.4785ZM84.8848 8.80664L82.3184 20.9004C81.8086 23.291 82.3359 24.7676 84.3223 24.7676C86.6426 24.7676 88.541 22.4824 89.3496 19.3535L90.9668 11.7773C91.1602 10.8984 90.9844 10.582 90.1055 10.3359L89.0332 10.1074L89.1387 9.58008L94.957 8.80664L91.8984 23.0625C91.6699 24.1699 92.0566 24.6797 92.8652 24.6797C93.4629 24.6797 94.2891 24.416 94.8164 23.9238L94.6934 24.5566C93.9727 25.5762 92.25 26.2793 90.791 26.2793C89.0332 26.2793 88.2246 25.1895 88.7168 22.8691C88.7168 22.8516 89.1211 21.0059 89.1211 20.9883C87.873 24.4336 85.4297 26.332 82.8105 26.332C79.5762 26.332 78.3105 24.0469 79.084 20.4258L80.9121 11.7773C81.1055 10.8984 80.9297 10.582 80.0332 10.3359L78.9609 10.1074L79.084 9.52734L84.8848 8.80664ZM103.096 5.69531C101.988 5.69531 101.145 4.85156 101.145 3.7793C101.145 2.63672 102.076 1.72266 103.219 1.72266C104.344 1.72266 105.17 2.54883 105.17 3.63867C105.17 4.78125 104.273 5.69531 103.096 5.69531ZM103.957 8.80664L100.934 23.0625C100.688 24.1699 101.074 24.6797 101.865 24.6797C102.463 24.6797 103.307 24.416 103.834 23.9238L103.711 24.5566C102.973 25.5762 101.268 26.2793 99.791 26.2793C97.9629 26.2793 97.1191 25.1895 97.6641 22.6582L99.9844 11.7773C100.16 10.8984 100.002 10.582 99.1055 10.3359L98.0332 10.1074L98.1562 9.52734L103.957 8.80664ZM112.746 26.332C109.371 26.332 106.576 23.9062 106.576 19.3535C106.576 13.4121 110.514 8.70117 115.295 8.70117C118.02 8.70117 119.795 9.9668 119.795 12.0586C119.795 14.6953 116.965 16.418 111.041 18.1758L110.039 18.4746C110.021 18.668 110.021 18.8438 110.021 19.0371C110.021 22.834 111.832 24.8203 114.311 24.8203C115.805 24.8203 117.352 24.0996 118.336 23.0801L118.213 23.748C117.105 25.2598 115.031 26.332 112.746 26.332ZM115.154 9.47461C112.307 9.47461 110.391 13.5352 110.074 17.7891L111.059 17.4727C114.715 16.3125 117 14.168 117 11.5312C117 10.2129 116.473 9.47461 115.154 9.47461ZM125.684 26.2969C123.064 26.2969 121.676 24.3105 122.396 20.8301L124.576 10.459H122.326L122.432 9.91406L124.822 9.4043L125.543 5.88867L129.023 5.30859L128.127 9.5625L132.592 9.33398L132.346 10.459L127.969 10.3008L125.648 21.1816C125.121 23.6602 125.824 24.7148 127.441 24.7148C128.479 24.7148 129.375 24.293 129.92 23.6602L129.814 24.293C129.023 25.5938 127.371 26.2969 125.684 26.2969ZM143.543 8.82422V11.7598C144.615 9.87891 146.584 8.70117 149.115 8.70117C151.699 8.70117 153.58 9.77344 154.283 11.8652C155.355 9.87891 157.518 8.70117 159.996 8.70117C163.301 8.70117 165.621 10.4414 165.621 14.0625V23.625C165.621 24.8379 165.92 25.1367 167.748 25.418V26.0156H160.154V25.418C161.947 25.1543 162.158 24.873 162.158 23.7305V14.748C162.158 11.7949 160.805 10.3359 158.361 10.3359C156.621 10.3359 155.268 11.0215 154.424 12.3223C154.529 12.8145 154.6 13.3594 154.6 13.957V23.7305C154.6 24.873 154.811 25.1543 156.604 25.418V26.0156H149.133V25.418C150.926 25.1543 151.137 24.873 151.137 23.7305V14.748C151.137 11.7949 149.818 10.3359 147.393 10.3359C145.67 10.3359 144.422 11.0391 143.578 12.375V23.7305C143.578 24.873 143.789 25.1719 145.582 25.418V26.0156H137.988V25.418C139.816 25.1367 140.115 24.8379 140.115 23.625V11.7422C140.115 10.8105 139.992 10.6172 139.025 10.3008L137.988 9.98438V9.45703L143.543 8.82422ZM172.811 5.71289C171.668 5.71289 170.736 4.83398 170.736 3.72656C170.736 2.60156 171.668 1.70508 172.811 1.70508C173.953 1.70508 174.885 2.60156 174.885 3.72656C174.885 4.83398 173.953 5.71289 172.811 5.71289ZM174.867 8.82422V23.625C174.867 24.8379 175.166 25.1367 176.994 25.418V26.0156H169.277V25.418C171.105 25.1367 171.404 24.8379 171.404 23.625V11.7422C171.404 10.8105 171.281 10.6172 170.314 10.3008L169.277 9.98438V9.45703L174.867 8.82422ZM179.262 17.6484C179.262 12.2695 182.918 8.70117 187.453 8.70117C189.562 8.70117 191.145 9.5625 191.953 10.8457V2.91797C191.953 1.98633 191.83 1.79297 190.863 1.47656L189.826 1.16016V0.632812L195.416 0V23.2383C195.416 24.1875 195.539 24.3809 196.523 24.6973L197.543 24.9961V25.5234L191.988 26.1738V23.1152C191.057 25.0488 188.824 26.332 186.346 26.332C182.619 26.332 179.262 23.1855 179.262 17.6484ZM182.865 17.2441C182.865 21.7793 185.01 24.6973 187.998 24.6973C189.844 24.6973 191.162 23.9238 191.953 22.5527V11.7246C191.391 10.5645 189.914 9.70312 188.262 9.70312C185.027 9.70312 182.865 12.709 182.865 17.2441ZM199.828 17.6484C199.828 12.2695 203.484 8.70117 208.02 8.70117C210.129 8.70117 211.711 9.5625 212.52 10.8457V2.91797C212.52 1.98633 212.396 1.79297 211.43 1.47656L210.393 1.16016V0.632812L215.982 0V23.2383C215.982 24.1875 216.105 24.3809 217.09 24.6973L218.109 24.9961V25.5234L212.555 26.1738V23.1152C211.623 25.0488 209.391 26.332 206.912 26.332C203.186 26.332 199.828 23.1855 199.828 17.6484ZM203.432 17.2441C203.432 21.7793 205.576 24.6973 208.564 24.6973C210.41 24.6973 211.729 23.9238 212.52 22.5527V11.7246C211.957 10.5645 210.48 9.70312 208.828 9.70312C205.594 9.70312 203.432 12.709 203.432 17.2441ZM225.316 0V23.625C225.316 24.8379 225.615 25.1367 227.443 25.418V26.0156H219.727V25.418C221.555 25.1367 221.854 24.8379 221.854 23.625V2.91797C221.854 1.98633 221.73 1.79297 220.764 1.47656L219.727 1.16016V0.632812L225.316 0ZM229.746 17.5078C229.746 12.4277 232.84 8.70117 237.727 8.70117C242.121 8.70117 244.688 11.584 244.688 15.6973C244.688 16.0312 244.652 16.4004 244.617 16.6289H233.262C233.385 21.375 236.004 24.6973 239.924 24.6973C241.91 24.6973 243.404 23.9766 244.371 22.957V23.5547C243.281 25.1895 240.996 26.332 238.113 26.332C233.279 26.332 229.746 22.7988 229.746 17.5078ZM237.709 9.54492C235.002 9.54492 233.35 11.8477 233.262 15.9258L241.33 15.8555C241.348 15.627 241.365 15.3633 241.365 15.082C241.365 11.918 240.17 9.54492 237.709 9.54492Z" fill="white"/>
</svg>
